<svg width="88" height="88" viewBox="0 0 88 88" fill="none" xmlns="http://www.w3.org/2000/svg">
<g filter="url(#filter0_bd_17_72)">
<rect x="4" width="80" height="80" rx="8" fill="#FFF5F5" fill-opacity="0.1" shape-rendering="crispEdges"/>
<rect x="4.5" y="0.5" width="79" height="79" rx="7.5" stroke="#FFF5F5" stroke-opacity="0.1" shape-rendering="crispEdges"/>
</g>
<path fill-rule="evenodd" clip-rule="evenodd" d="M55.1306 50.5871C54.1485 39.8551 47.154 35.8892 47.154 35.8892C47.154 32.8858 49.3745 30.8979 50.8191 29.9228C51.4933 29.4673 51.7134 28.5618 51.3526 27.8207L50.9514 26.996C50.6213 26.319 49.8802 25.9317 49.1656 26.117C47.4535 26.5614 45.9073 27.6187 44.9628 28.3751C44.3944 28.8307 43.6074 28.8307 43.0376 28.3751C42.0917 27.6187 40.5455 26.5614 38.8348 26.117C38.1202 25.9304 37.3791 26.3176 37.049 26.996L36.6478 27.8207C36.287 28.5618 36.5085 29.4687 37.1813 29.9228C38.6259 30.8979 40.8464 32.8858 40.8464 35.8892C40.8464 35.8892 33.8505 39.8551 32.8699 50.5871C32.64 53.0959 35.4163 54.6784 37.3136 53.0834L37.3485 53.0541C38.5144 52.0748 40.519 51.955 41.6195 53.0137C42.8788 54.2257 45.0756 54.2354 46.3503 53.0444C47.4828 51.9871 49.5041 52.0874 50.6882 53.0834V53.0834C52.5841 54.6798 55.3604 53.0973 55.1306 50.5871V50.5871Z" stroke="#45A3C4" stroke-width="3" stroke-linecap="round" stroke-linejoin="round"/>
<path d="M40.8521 35.8905H47.1486" stroke="#45A3C4" stroke-width="3" stroke-linecap="round" stroke-linejoin="round"/>
<defs>
<filter id="filter0_bd_17_72" x="-124" y="-128" width="336" height="336" filterUnits="userSpaceOnUse" color-interpolation-filters="sRGB">
<feFlood flood-opacity="0" result="BackgroundImageFix"/>
<feGaussianBlur in="BackgroundImageFix" stdDeviation="64"/>
<feComposite in2="SourceAlpha" operator="in" result="effect1_backgroundBlur_17_72"/>
<feColorMatrix in="SourceAlpha" type="matrix" values="0 0 0 0 0 0 0 0 0 0 0 0 0 0 0 0 0 0 127 0" result="hardAlpha"/>
<feOffset dy="4"/>
<feGaussianBlur stdDeviation="2"/>
<feComposite in2="hardAlpha" operator="out"/>
<feColorMatrix type="matrix" values="0 0 0 0 0 0 0 0 0 0.235294 0 0 0 0 0.321569 0 0 0 0.1 0"/>
<feBlend mode="normal" in2="effect1_backgroundBlur_17_72" result="effect2_dropShadow_17_72"/>
<feBlend mode="normal" in="SourceGraphic" in2="effect2_dropShadow_17_72" result="shape"/>
</filter>
</defs>
</svg>
