<svg width="100" height="100" viewBox="0 0 100 100" fill="none" xmlns="http://www.w3.org/2000/svg">
<circle cx="50" cy="50" r="50" fill="#76CCEA"/>
<g clip-path="url(#clip0_62_849)">
<path d="M69.0122 36.8372C68.5879 36.3879 68.057 36.0528 67.4689 35.8631C66.8807 35.6734 66.2541 35.6351 65.6472 35.7517C63.755 36.1312 61.7984 36.0375 59.9511 35.4789C58.1039 34.9202 56.4232 33.914 55.0583 32.5495L52.5726 30.0638C52.2363 29.7231 51.8358 29.4526 51.3942 29.268C50.9525 29.0834 50.4787 28.9883 50 28.9883C49.5213 28.9883 49.0475 29.0834 48.6058 29.268C48.1642 29.4526 47.7636 29.7231 47.4274 30.0638L44.9254 32.5495C43.5611 33.915 41.8806 34.9222 40.0333 35.4818C38.1861 36.0414 36.2291 36.136 34.3365 35.7571C33.7312 35.634 33.1044 35.6674 32.5156 35.8541C31.9267 36.0407 31.3953 36.3746 30.9714 36.8239C30.5476 37.2733 30.2454 37.8234 30.0934 38.4221C29.9415 39.0209 29.9448 39.6485 30.1031 40.2456L35.0312 59.0082C35.2357 59.7842 35.6909 60.471 36.3259 60.9617C36.9609 61.4524 37.7402 61.7197 38.5427 61.7219H61.4138C62.2182 61.7221 63 61.4559 63.6373 60.965C64.2745 60.4741 64.7312 59.786 64.9362 59.0082L69.8915 40.2565C70.0453 39.6586 70.0454 39.0316 69.8916 38.4337C69.7379 37.8359 69.4354 37.2867 69.0122 36.8372ZM50.0163 55.1113C49.2382 55.1127 48.4675 54.9608 47.7482 54.6642C47.0289 54.3676 46.3751 53.9321 45.8242 53.3827C45.2733 52.8333 44.836 52.1807 44.5374 51.4622C44.2389 50.7437 44.0848 49.9735 44.0841 49.1954C44.0701 47.9562 44.4492 46.7446 45.1669 45.7343C45.8846 44.7241 46.904 43.9673 48.0787 43.5726C48.8936 43.2909 49.7601 43.1901 50.6179 43.2775C51.4757 43.3648 52.3041 43.6381 53.0455 44.0782C53.7869 44.5184 54.4235 45.1149 54.9108 45.8262C55.3981 46.5374 55.7246 47.3464 55.8674 48.1967C56.0102 49.0471 55.9659 49.9183 55.7376 50.7498C55.5093 51.5812 55.1025 52.3529 54.5455 53.0111C53.9886 53.6693 53.2948 54.1982 52.5126 54.5609C51.7304 54.9236 50.8785 55.1114 50.0163 55.1113Z" fill="#FFF5F5"/>
<path d="M60.616 63.2524H39.3894C37.513 63.2524 35.9919 64.7735 35.9919 66.6499C35.9919 68.5264 37.513 70.0475 39.3894 70.0475H60.616C62.4924 70.0475 64.0136 68.5264 64.0136 66.6499C64.0136 64.7735 62.4924 63.2524 60.616 63.2524Z" fill="#FFF5F5"/>
</g>
<defs>
<clipPath id="clip0_62_849">
<rect width="40" height="41.0475" fill="white" transform="translate(30 29)"/>
</clipPath>
</defs>
</svg>
