<svg width="24" height="24" viewBox="0 0 24 24" fill="none" xmlns="http://www.w3.org/2000/svg">
<path d="M11 20C6.029 20 2 15.971 2 11C2 6.029 6.029 2 11 2C15.971 2 20 6.029 20 11" stroke="#FFB5C3" stroke-width="1.5" stroke-linecap="round" stroke-linejoin="round"/>
<path d="M22 14H20.742L19.736 19.031H14.705L14 15.509H20.44" stroke="#FFB5C3" stroke-width="1.5" stroke-linecap="round" stroke-linejoin="round"/>
<path d="M15.172 21.512C15.192 21.492 15.224 21.492 15.243 21.512C15.262 21.532 15.263 21.564 15.243 21.583C15.223 21.602 15.191 21.603 15.172 21.583C15.152 21.563 15.152 21.531 15.172 21.512" stroke="#FFB5C3" stroke-width="1.5" stroke-linecap="round" stroke-linejoin="round"/>
<path d="M19.1971 21.512C19.2171 21.492 19.2491 21.492 19.2681 21.512C19.2871 21.532 19.2881 21.564 19.2681 21.583C19.2481 21.602 19.2161 21.603 19.1971 21.583C19.1771 21.563 19.1771 21.531 19.1971 21.512" stroke="#FFB5C3" stroke-width="1.5" stroke-linecap="round" stroke-linejoin="round"/>
<path d="M15 11C15 8.236 14.277 5.472 12.833 3.06C11.986 1.647 10.014 1.647 9.16799 3.06C6.27799 7.885 6.27799 14.116 9.16799 18.941C9.59099 19.647 10.295 20 11 20" stroke="#FFB5C3" stroke-width="1.5" stroke-linecap="round" stroke-linejoin="round"/>
<path d="M2.51001 8H19" stroke="#FFB5C3" stroke-width="1.5" stroke-linecap="round" stroke-linejoin="round"/>
<path d="M2.51001 14H11" stroke="#FFB5C3" stroke-width="1.5" stroke-linecap="round" stroke-linejoin="round"/>
</svg>
