<svg width="25" height="24" viewBox="0 0 25 24" fill="none" xmlns="http://www.w3.org/2000/svg">
<path fill-rule="evenodd" clip-rule="evenodd" d="M18.7039 5.762C17.0579 4.115 14.8689 3.207 12.5369 3.206C7.7299 3.206 3.8189 7.115 3.8179 11.92C3.8159 13.449 4.2169 14.952 4.9809 16.277L3.7439 20.793L8.3659 19.581C9.6449 20.277 11.0769 20.642 12.5329 20.642H12.5369C17.3419 20.642 21.2529 16.732 21.2549 11.927C21.2559 9.599 20.3499 7.41 18.7039 5.762Z" stroke="#870F26" stroke-width="1.5" stroke-linecap="round" stroke-linejoin="round"/>
<path d="M13.595 13.56L14.001 13.157C14.374 12.787 14.964 12.74 15.394 13.042C15.81 13.334 16.186 13.596 16.536 13.84C17.092 14.226 17.159 15.018 16.68 15.496L16.321 15.855" stroke="#870F26" stroke-width="1.5" stroke-linecap="round" stroke-linejoin="round"/>
<path d="M8.64502 8.179L9.00402 7.82C9.48202 7.342 10.274 7.409 10.66 7.964C10.903 8.314 11.165 8.69 11.458 9.106C11.76 9.536 11.714 10.126 11.343 10.499L10.94 10.905" stroke="#870F26" stroke-width="1.5" stroke-linecap="round" stroke-linejoin="round"/>
<path d="M16.321 15.855C14.84 17.329 12.351 16.077 10.386 14.111" stroke="#870F26" stroke-width="1.5" stroke-linecap="round" stroke-linejoin="round"/>
<path d="M10.3881 14.114C8.42307 12.148 7.17107 9.66 8.64507 8.179" stroke="#870F26" stroke-width="1.5" stroke-linecap="round" stroke-linejoin="round"/>
<path d="M10.9402 10.905C11.2592 11.408 11.6682 11.906 12.1302 12.368L12.1322 12.37C12.5942 12.832 13.0922 13.241 13.5952 13.56" stroke="#870F26" stroke-width="1.5" stroke-linecap="round" stroke-linejoin="round"/>
</svg>
